<?xml version="1.0" standalone="no"?>
<!DOCTYPE svg PUBLIC "-//W3C//DTD SVG 20010904//EN"
 "http://www.w3.org/TR/2001/REC-SVG-20010904/DTD/svg10.dtd">
<svg version="1.0" xmlns="http://www.w3.org/2000/svg"
 width="512.000000pt" height="512.000000pt" viewBox="0 0 512.000000 512.000000"
 preserveAspectRatio="xMidYMid meet">
<metadata>
Created by potrace 1.11, written by Peter Selinger 2001-2013
</metadata>
<g transform="translate(0.000000,512.000000) scale(0.100000,-0.100000)"
fill="#000000" stroke="none">
<path d="M1382 4633 c1 -4 -2 -19 -6 -31 -6 -18 -2 -30 15 -48 20 -21 21 -26
9 -34 -8 -5 -10 -10 -5 -10 6 0 11 -18 11 -40 1 -26 -3 -37 -10 -33 -6 4 -4
-1 4 -11 12 -16 12 -20 -1 -30 -16 -11 -23 -49 -7 -40 4 3 11 -2 14 -10 4 -10
18 -16 35 -16 16 0 29 -5 29 -11 0 -5 4 -8 8 -5 5 3 9 -16 11 -41 1 -26 4 -50
7 -55 3 -4 0 -8 -6 -8 -6 0 -8 -4 -5 -10 3 -5 0 -10 -9 -10 -8 0 -13 -7 -11
-17 1 -10 -2 -24 -8 -30 -6 -9 -6 -13 2 -13 6 0 11 -6 11 -13 0 -16 32 -18 42
-3 5 8 8 8 8 0 0 -6 13 -9 30 -6 17 2 30 10 30 17 0 7 8 12 18 10 9 -1 16 -9
14 -16 -1 -8 4 -5 13 5 13 17 15 17 15 4 0 -10 10 -18 23 -20 12 -2 23 -10 23
-18 1 -8 2 -21 3 -27 0 -7 8 -13 17 -13 8 0 21 -6 28 -12 14 -15 16 -59 2 -51
-5 4 -7 0 -4 -9 4 -9 0 -15 -8 -15 -8 0 -14 5 -14 11 0 6 -5 4 -10 -4 -6 -10
-10 -11 -10 -3 0 9 -7 10 -22 5 -13 -4 -58 -7 -100 -6 -60 1 -78 -2 -78 -12 0
-8 -3 -13 -7 -13 -5 1 -10 0 -13 -1 -10 -4 -59 -5 -55 -2 2 3 -3 11 -11 19
-13 13 -17 12 -34 -9 -11 -12 -19 -17 -20 -10 0 9 -5 10 -19 3 -14 -8 -22 -7
-30 3 -6 7 -8 15 -5 19 3 3 -2 4 -12 3 -15 -2 -19 -13 -19 -50 -1 -46 -22 -85
-32 -59 -3 9 -10 10 -21 4 -9 -5 -45 -8 -79 -6 -40 2 -61 -1 -57 -7 4 -5 -4
-5 -16 2 -15 8 -20 8 -16 1 4 -6 2 -11 -5 -11 -9 0 -9 -3 0 -14 9 -10 9 -16 1
-21 -8 -5 -8 -11 1 -21 9 -11 9 -14 0 -14 -7 0 -9 -4 -6 -10 3 -5 -2 -10 -12
-10 -11 0 -25 -6 -32 -12 -11 -11 -13 -10 -7 0 8 13 -19 13 -41 -1 -8 -5 -13
-3 -13 5 0 9 -3 9 -10 -2 -6 -9 -10 -10 -10 -3 0 12 -38 12 -58 -1 -8 -4 -11
-20 -8 -36 3 -23 -2 -34 -27 -54 -22 -18 -34 -23 -43 -15 -8 7 -14 7 -19 -1
-3 -6 -11 -7 -17 -4 -8 5 -9 -6 -5 -34 3 -24 1 -40 -4 -36 -5 3 -9 0 -9 -6 0
-6 -5 -8 -10 -5 -6 4 -10 3 -9 -2 5 -31 -16 -42 -33 -18 -5 6 -8 6 -8 -2 0 -6
-8 -9 -18 -6 -20 5 -21 1 -23 -79 -1 -37 -5 -48 -18 -48 -13 0 -13 -2 -2 -9 9
-6 2 -8 -20 -6 -19 2 -37 4 -41 4 -4 1 -5 12 -2 26 3 19 0 25 -14 25 -15 0
-18 -8 -18 -40 0 -36 6 -44 28 -41 3 0 3 -12 -1 -27 -4 -15 -6 -32 -4 -39 2
-6 -1 -15 -8 -19 -8 -5 -10 -3 -4 7 7 11 5 11 -11 -1 -44 -34 -85 -82 -81 -94
3 -8 0 -19 -6 -26 -9 -10 -9 -11 3 -5 8 5 5 -3 -8 -17 -12 -13 -19 -27 -16
-30 8 -9 -18 -4 -33 5 -6 4 -15 3 -18 -3 -4 -6 -14 -8 -24 -5 -9 3 -26 -2 -37
-10 -15 -11 -16 -15 -4 -16 8 -1 19 -1 23 0 5 1 6 -3 2 -9 -3 -5 -3 -10 2 -10
14 0 2 -114 -13 -123 -18 -10 -18 -38 0 -31 7 3 16 -2 19 -10 4 -9 1 -16 -6
-16 -8 0 -6 -4 3 -10 12 -7 12 -10 1 -10 -7 0 -11 -6 -8 -14 3 -7 0 -19 -6
-26 -9 -10 -9 -11 0 -6 9 5 11 2 7 -8 -3 -9 -10 -14 -14 -11 -5 3 -11 1 -15
-5 -3 -5 -1 -10 6 -10 8 0 7 -5 -2 -17 -12 -14 -12 -15 -1 -9 11 7 12 4 3 -12
-7 -14 -8 -23 -1 -27 6 -4 8 -11 4 -16 -3 -5 -9 -7 -14 -4 -11 7 -21 -47 -17
-97 1 -21 -2 -38 -7 -38 -4 0 -3 -7 4 -15 9 -11 9 -15 1 -15 -9 0 -9 -5 -1
-20 8 -15 8 -20 -2 -20 -9 0 -9 -3 2 -10 13 -9 13 -10 0 -10 -9 0 -11 -3 -5
-8 13 -9 14 -62 0 -62 -5 0 -3 -5 5 -10 9 -6 10 -10 3 -10 -8 0 -9 -9 -3 -30
6 -20 5 -30 -2 -30 -6 0 -6 -6 2 -15 9 -11 9 -15 1 -15 -8 0 -9 -6 -4 -17 11
-22 10 -64 0 -80 -5 -8 -4 -13 2 -13 6 0 8 -7 4 -16 -4 -10 1 -17 15 -21 18
-4 20 -9 11 -24 -7 -14 -6 -19 3 -19 9 0 9 -3 1 -11 -13 -13 4 -62 18 -53 4 2
6 -7 3 -22 -3 -18 -1 -23 7 -18 8 5 9 2 2 -11 -13 -23 -4 -65 14 -65 10 0 12
-6 8 -20 -4 -12 -2 -20 5 -20 6 0 8 -4 5 -10 -3 -5 0 -10 8 -10 15 0 19 -31 5
-41 -4 -3 2 -16 14 -29 13 -14 22 -28 21 -32 -2 -4 4 -5 12 -2 10 4 13 0 10
-15 -2 -12 -1 -21 3 -21 4 0 8 -12 7 -28 0 -15 5 -26 12 -25 6 1 14 -4 17 -12
3 -8 1 -15 -5 -15 -5 0 0 -13 12 -29 12 -16 27 -27 34 -25 8 4 11 -4 9 -21 -1
-16 3 -28 12 -32 8 -3 14 -11 14 -18 0 -8 9 -17 20 -20 11 -3 20 -13 20 -21 0
-8 5 -14 10 -14 6 0 10 -12 10 -26 0 -14 4 -23 10 -19 15 9 47 -18 44 -38 -1
-9 4 -17 12 -17 8 0 14 -7 14 -16 0 -8 5 -12 10 -9 6 3 14 -4 19 -17 6 -13 10
-18 10 -13 1 6 13 -3 27 -20 14 -16 23 -25 20 -18 -4 7 1 11 13 10 11 0 18 -4
15 -8 -2 -4 3 -9 11 -13 8 -3 15 -12 15 -21 0 -8 7 -15 16 -15 8 0 12 -5 9
-10 -3 -5 3 -10 14 -10 12 0 21 -5 21 -11 0 -8 6 -7 17 2 9 8 14 9 10 3 -3 -6
7 -26 22 -43 21 -23 31 -29 37 -20 5 9 14 4 32 -17 13 -16 21 -23 18 -16 -13
23 19 12 38 -13 10 -14 25 -25 33 -25 8 0 12 -4 8 -9 -3 -6 4 -8 15 -6 13 2
24 -4 31 -17 7 -14 14 -17 18 -9 5 8 13 6 27 -5 10 -8 13 -12 5 -8 -9 4 -12 3
-8 -4 4 -5 15 -9 25 -7 9 1 25 -2 35 -7 10 -5 17 -5 17 1 0 15 32 6 45 -13 7
-9 17 -16 21 -15 21 3 34 -2 34 -13 0 -10 21 -13 75 -12 50 1 75 -2 75 -10 0
-8 2 -8 8 1 8 12 29 13 49 0 6 -4 14 -3 18 3 10 16 23 12 30 -11 5 -15 10 -18
18 -10 5 5 17 7 26 3 20 -9 42 -9 59 1 7 5 12 3 12 -3 0 -7 7 -7 23 1 12 7 23
11 24 10 7 -7 63 -19 59 -13 -2 4 6 16 17 27 11 11 17 14 13 8 -9 -16 6 -17
20 -3 17 17 36 -14 38 -60 0 -22 -2 -40 -6 -40 -4 0 -5 -7 -2 -15 5 -11 11
-12 24 -5 13 7 21 6 26 -2 4 -6 3 -8 -4 -4 -6 3 -13 2 -16 -3 -7 -11 13 -9 33
3 11 7 13 5 8 -7 -3 -9 -1 -19 5 -23 7 -5 8 -2 3 6 -5 8 -3 11 6 8 8 -3 13
-11 11 -17 -1 -7 2 -10 8 -6 6 3 8 11 5 16 -4 5 -1 9 4 9 6 0 11 -6 11 -12 1
-7 10 -2 22 12 l21 25 -7 -25 c-6 -21 -5 -22 4 -7 18 29 52 37 74 18 11 -9 16
-11 13 -4 -4 6 -3 14 3 18 5 3 10 2 10 -3 0 -6 10 -8 23 -4 20 5 21 4 8 -11
-12 -15 -12 -17 4 -11 11 5 16 4 12 -3 -3 -5 0 -10 8 -10 8 0 11 5 8 10 -3 5
0 7 8 5 8 -3 13 -11 11 -18 -2 -10 0 -11 11 -2 8 7 17 9 20 5 4 -3 7 -1 7 4 0
6 11 10 25 9 15 -2 22 1 18 7 -4 6 0 8 11 4 10 -4 15 -3 11 3 -3 6 0 10 7 11
7 0 29 2 48 4 19 1 43 -2 54 -7 13 -7 16 -7 12 1 -10 15 7 14 23 -1 8 -7 11
-8 8 -2 -3 6 0 11 7 11 7 0 13 -7 12 -16 -1 -9 7 -15 19 -15 11 0 22 -3 25 -6
27 -28 79 -30 81 -2 0 11 2 13 6 4 4 -10 8 -10 21 0 13 11 15 11 8 -2 -4 -8 1
-6 11 6 23 26 50 37 59 22 5 -7 12 -5 21 7 9 14 13 15 13 4 1 -11 3 -10 10 3
7 11 20 15 40 13 22 -3 29 -1 23 8 -4 7 0 7 10 -2 19 -15 23 -26 5 -15 -7 4
-8 3 -4 -5 5 -7 12 -9 19 -3 15 12 80 -5 72 -18 -4 -6 6 -10 22 -10 22 0 25
-2 13 -10 -12 -8 -10 -10 8 -10 13 0 21 -3 19 -7 -3 -5 6 -8 19 -8 13 0 24 4
24 8 0 5 6 5 13 0 19 -12 37 -12 37 0 0 6 7 2 15 -9 15 -18 15 -18 8 0 -4 12
-3 17 4 13 6 -4 14 0 17 9 3 9 13 14 21 10 8 -3 19 2 24 12 7 12 24 17 63 17
33 1 52 5 51 12 -1 6 4 14 12 17 8 3 15 0 15 -6 0 -6 5 -7 13 -2 11 8 33 10
47 4 3 -1 21 -4 40 -7 19 -2 38 -10 42 -16 4 -7 8 -8 8 -3 0 5 7 2 16 -5 9 -7
26 -15 37 -16 12 -2 30 -14 40 -26 10 -12 15 -15 11 -7 -5 11 -1 10 13 -3 21
-18 22 -18 32 0 6 10 11 13 11 6 0 -14 40 -13 40 2 0 5 4 5 8 -2 6 -10 21 -11
85 -4 5 1 5 6 2 11 -3 6 -2 10 4 10 5 0 17 8 27 18 20 20 34 22 52 9 7 -5 12
-6 12 0 0 11 270 10 289 -1 10 -7 12 -5 7 5 -4 8 0 5 8 -5 14 -17 16 -18 16
-3 0 9 4 17 10 17 5 0 6 -7 3 -17 -4 -10 -2 -14 5 -9 6 3 14 0 19 -7 4 -8 19
-20 33 -26 l25 -12 -25 21 c-24 20 -24 21 -2 10 13 -6 26 -18 29 -26 3 -7 9
-11 14 -8 5 3 9 1 9 -4 0 -5 14 -12 30 -14 17 -3 30 0 30 5 0 5 7 4 15 -3 12
-10 15 -10 15 1 0 11 2 11 10 -1 7 -11 10 -11 10 -2 0 7 5 10 10 7 15 -9 41
15 33 29 -4 6 1 4 11 -3 16 -13 17 -13 14 5 -2 15 2 18 21 16 15 -2 21 0 17 7
-5 8 1 8 21 0 15 -5 24 -7 20 -3 -4 4 -2 13 4 20 8 10 16 11 31 3 12 -7 18 -7
14 -1 -3 6 16 9 52 7 49 -2 60 1 78 22 18 21 20 36 19 106 -1 45 -3 87 -5 92
-1 6 -1 15 0 20 8 29 4 115 -5 115 -7 0 -7 3 0 8 13 9 14 183 1 175 -5 -4 -6
-1 -2 6 5 7 10 26 13 43 3 23 1 28 -9 22 -10 -6 -11 -4 -2 7 6 8 10 53 9 106
-1 51 1 90 5 88 4 -2 5 7 2 20 -2 15 -9 22 -16 18 -7 -4 -7 -2 1 8 7 8 10 28
7 43 -3 20 -1 25 7 20 8 -5 9 -3 4 7 -5 7 -10 23 -11 35 -2 17 2 22 14 18 9
-3 6 2 -8 10 -20 12 -21 15 -7 16 13 0 16 4 9 18 -4 9 -7 35 -6 57 1 22 -3 46
-9 53 -7 9 -6 11 7 6 14 -5 15 -3 6 22 -8 20 -8 30 -1 32 6 2 8 8 5 13 -3 6 0
17 8 26 7 9 8 14 2 10 -7 -4 -14 0 -18 8 -3 8 -1 15 3 15 5 0 12 7 15 16 5 13
3 14 -6 6 -10 -8 -13 -4 -14 19 -1 15 3 26 7 23 11 -6 0 26 -15 45 -9 12 -8
13 2 7 11 -6 12 0 8 29 -5 27 -3 34 6 29 10 -6 10 -5 1 8 -7 8 -10 18 -6 21 3
4 0 13 -6 21 -9 11 -9 16 0 22 8 5 9 3 4 -6 -5 -9 -4 -11 3 -6 8 5 8 15 2 32
-13 33 -13 37 3 28 9 -5 9 -4 0 6 -10 11 -9 16 5 27 9 8 12 12 7 9 -6 -2 -17
-1 -25 5 -12 7 -12 9 4 9 16 0 17 2 5 17 -11 13 -11 17 -1 20 6 3 9 10 5 16
-13 21 -14 49 -2 41 8 -5 9 -2 2 11 -6 10 -8 27 -5 38 4 15 2 18 -9 12 -11 -7
-12 -6 -2 6 7 8 10 29 7 48 -4 22 -2 31 5 27 13 -8 4 21 -13 43 -9 12 -8 13 2
7 11 -6 12 0 8 29 -4 26 -3 34 6 29 7 -5 8 -3 2 7 -5 8 -7 22 -5 33 2 13 -1
16 -11 10 -10 -6 -10 -4 1 9 7 9 10 17 6 17 -4 0 -1 8 6 17 10 11 10 14 2 9
-8 -4 -13 -1 -13 9 0 10 5 13 13 9 9 -6 9 -5 0 7 -6 8 -10 27 -9 42 2 15 -1
27 -5 27 -5 0 -9 5 -9 11 0 5 5 7 12 3 7 -5 8 -3 2 7 -4 8 -10 23 -11 34 -2
10 -9 23 -16 27 -9 6 -8 8 3 8 13 0 13 1 0 10 -8 5 -10 10 -3 10 9 0 11 27 3
38 -7 7 -5 29 3 39 10 14 -13 28 -35 21 -14 -5 -32 9 -39 29 -4 13 -8 11 -69
-25 -19 -12 -21 -12 -14 0 6 10 5 11 -7 1 -11 -9 -18 -8 -31 1 -10 7 -15 15
-12 18 2 3 -2 8 -11 11 -8 4 -15 3 -15 -1 0 -4 -9 -8 -20 -8 -11 0 -20 4 -20
8 0 12 -31 -3 -54 -26 -13 -13 -21 -16 -24 -8 -3 9 -9 9 -23 2 -15 -9 -19 -7
-19 8 0 11 -8 18 -20 19 -11 1 -20 -4 -20 -11 0 -8 -13 -16 -30 -18 -16 -3
-30 -1 -30 3 0 4 -12 4 -27 0 -21 -6 -33 -3 -46 9 -19 18 -80 33 -71 18 3 -5
-6 -6 -20 -2 -21 5 -26 3 -26 -12 0 -9 -3 -15 -6 -11 -3 3 -17 2 -30 -3 -15
-6 -24 -6 -24 0 0 6 -9 6 -25 0 -17 -6 -25 -6 -25 1 0 6 -4 8 -9 4 -5 -3 -16
2 -24 10 -10 9 -33 14 -64 14 -26 -1 -50 0 -53 1 -16 6 -50 6 -50 -1 0 -10
-34 -6 -42 6 -5 6 -8 5 -8 -4 0 -10 -3 -11 -14 -2 -11 9 -16 9 -22 0 -4 -8 -3
-9 4 -5 7 4 12 5 12 2 0 -9 -41 -28 -66 -31 -14 -1 -21 2 -17 8 4 6 0 8 -10 4
-12 -4 -17 -1 -17 11 -1 16 -2 15 -11 -1 -8 -14 -14 -16 -25 -6 -11 9 -14 8
-14 -7 0 -16 -2 -16 -9 -4 -6 8 -7 18 -4 23 3 5 0 7 -8 5 -8 -3 -22 -1 -31 4
-10 5 -18 5 -18 0 0 -4 -9 -8 -20 -8 -11 0 -20 5 -20 11 0 6 -3 7 -8 0 -4 -5
-16 -10 -27 -10 -11 0 -23 5 -27 10 -5 6 -8 5 -8 -3 0 -10 -5 -10 -20 -2 -14
8 -20 8 -20 0 0 -6 -4 -9 -9 -6 -5 4 -12 0 -14 -6 -4 -9 -6 -9 -6 1 -1 11 -5
10 -16 -5 -14 -18 -16 -18 -29 -1 -17 22 -22 21 -48 -3 -17 -15 -24 -17 -30
-8 -6 10 -8 10 -8 -1 0 -10 -3 -11 -13 -2 -8 6 -17 8 -20 4 -4 -3 -7 2 -7 11
0 10 -6 16 -12 13 -7 -2 -23 0 -35 4 -13 5 -23 5 -23 1 0 -11 -74 -8 -82 3 -5
7 -8 7 -8 0 0 -8 -126 -11 -203 -6 -5 1 -5 6 -2 11 3 6 -1 10 -10 10 -9 0 -14
4 -10 9 3 6 -3 15 -14 20 -16 9 -21 7 -25 -7 -6 -16 -17 -19 -96 -18 -92 1
-96 3 -91 44 1 7 -10 12 -29 12 -21 0 -30 5 -30 16 0 10 -6 14 -15 10 -8 -3
-15 0 -15 6 0 7 -5 6 -15 -2 -11 -9 -15 -9 -15 -1 0 9 -5 9 -20 1 -15 -8 -20
-8 -20 2 0 8 -3 9 -8 3 -8 -12 -53 -15 -46 -3 3 4 -2 8 -11 8 -9 0 -14 4 -11
8 3 5 -13 8 -34 6 -27 -1 -38 1 -34 8 5 7 2 8 -6 3 -18 -11 -123 -13 -137 -2
-8 6 -13 6 -13 -1 0 -5 -9 -8 -20 -5 -11 3 -27 0 -35 -7 -8 -6 -20 -8 -26 -4
-7 4 -9 3 -5 -4 3 -6 1 -14 -5 -18 -8 -5 -9 -3 -4 6 6 10 3 12 -13 8 -12 -4
-20 -2 -17 2 7 12 -57 0 -74 -13 -11 -9 -15 -9 -18 0 -3 9 -10 10 -23 3 -13
-7 -21 -7 -25 0 -4 7 -13 7 -26 0 -10 -6 -19 -7 -19 -2 0 4 -9 8 -20 8 -11 0
-20 -5 -20 -11 0 -5 -4 -4 -9 3 -6 11 -12 10 -26 -5 -20 -19 -23 -20 -68 -22
-16 -1 -26 -5 -22 -11 3 -5 1 -11 -4 -11 -42 -5 -58 -4 -70 5 -11 8 -13 8 -7
-2 9 -15 -11 -36 -39 -40 -11 -2 -23 -10 -28 -18 -4 -7 -14 -11 -22 -8 -8 4
-17 -1 -20 -9 -4 -10 -20 -14 -49 -13 -37 1 -43 -2 -42 -19 1 -11 -11 -32 -27
-47 -31 -29 -43 -36 -31 -16 5 7 3 8 -7 2 -21 -13 -39 -14 -39 -1 0 8 -4 7 -9
-2 -5 -7 -13 -11 -19 -7 -5 3 -12 -1 -16 -9 -3 -8 -2 -15 2 -15 14 0 4 -73
-12 -88 -10 -10 -19 -11 -33 -3 -14 7 -24 7 -33 -2 -10 -9 -11 -9 -6 1 9 15
-6 16 -22 0 -8 -8 -8 -17 -1 -31 6 -11 7 -17 2 -14 -5 3 -9 -3 -9 -13 0 -10 4
-16 8 -14 4 3 8 0 8 -5 0 -6 7 -11 16 -11 8 0 12 -5 9 -10 -4 -6 -11 -8 -16
-5 -5 3 -6 -2 -2 -11 4 -12 3 -15 -5 -10 -8 5 -12 0 -12 -13 0 -12 -5 -21 -11
-21 -5 0 -7 -4 -4 -10 3 -5 -5 -22 -19 -37 -15 -16 -26 -22 -26 -14 0 10 -3
11 -14 2 -11 -9 -15 -9 -19 1 -6 18 -15 8 -21 -25 -2 -15 0 -27 5 -27 6 0 7
-4 4 -10 -3 -5 0 -8 7 -5 9 4 13 -5 13 -29 0 -23 -4 -32 -12 -29 -8 3 -14 -3
-14 -16 -1 -12 -2 -31 -3 -43 0 -12 -6 -23 -13 -25 -7 -3 -9 -11 -6 -19 3 -8
0 -14 -7 -14 -9 0 -10 -3 -1 -14 9 -10 7 -16 -5 -27 -13 -11 -17 -10 -25 2 -6
10 -9 11 -9 1 0 -7 -5 -10 -10 -7 -9 6 -15 -17 -10 -40 7 -33 6 -55 -3 -55 -6
0 -6 -4 0 -12 13 -16 8 -49 -9 -59 -20 -13 -18 -71 3 -90 10 -9 16 -19 12 -23
-4 -4 9 -5 28 -2 30 3 35 1 37 -17 0 -12 6 -23 12 -25 5 -2 10 -8 10 -13 0 -6
-5 -7 -11 -3 -6 3 -3 -5 6 -20 12 -18 14 -26 5 -26 -10 0 -10 -3 0 -15 7 -8
15 -13 19 -11 9 6 7 -77 -3 -92 -4 -7 -11 -10 -15 -8 -4 3 -8 -4 -8 -15 -1
-13 2 -17 10 -12 9 5 9 3 2 -8 -6 -8 -10 -21 -9 -29 1 -8 2 -23 3 -33 1 -13 6
-17 20 -12 12 4 24 -1 33 -12 9 -13 25 -18 56 -17 35 1 40 -1 31 -12 -9 -11
-8 -14 2 -14 11 0 11 -2 2 -8 -9 -5 -10 -17 -4 -37 5 -17 10 -24 10 -17 1 7 6
10 11 7 6 -4 8 -11 5 -16 -4 -5 -1 -10 4 -10 6 -1 16 -3 21 -4 6 -1 16 -3 23
-4 8 -1 12 -16 11 -44 0 -38 2 -43 20 -43 12 1 29 12 38 26 10 14 18 19 18 13
0 -7 7 -13 15 -13 8 0 15 -4 15 -10 0 -5 6 -10 14 -10 8 0 16 -5 18 -11 2 -5
10 -11 18 -13 8 -2 23 -7 33 -11 15 -6 16 -10 5 -16 -11 -7 -11 -9 1 -9 10 0
11 -3 3 -13 -7 -7 -7 -18 -2 -27 10 -16 50 -21 50 -6 0 7 3 7 8 1 10 -14 52
-15 52 -1 0 6 5 4 10 -4 8 -13 10 -13 10 -1 0 12 3 12 12 3 8 -8 15 -9 25 -1
9 9 13 8 13 0 0 -7 4 -10 9 -6 5 3 12 1 16 -5 4 -6 11 -8 16 -5 5 4 9 2 9 -4
0 -5 29 -11 65 -13 36 -1 65 -1 65 2 0 3 17 5 38 4 22 -2 44 4 55 13 9 9 17
12 17 7 0 -5 5 -2 10 6 8 13 11 13 19 1 7 -11 13 -9 31 9 21 21 23 21 39 4 15
-17 15 -17 -4 -4 -17 12 -18 12 -7 0 7 -8 25 -15 40 -15 27 -1 28 1 25 37 -3
23 0 38 7 38 6 0 9 4 5 9 -3 6 3 8 14 6 11 -2 22 3 25 11 4 11 19 14 51 13 24
-2 48 1 52 6 5 4 0 5 -9 2 -10 -4 -18 -2 -18 3 0 6 4 10 9 10 5 0 8 8 7 18 0
9 5 16 12 14 6 -1 12 7 12 19 0 12 4 17 11 14 6 -4 13 2 16 13 3 13 10 19 19
15 8 -3 14 -2 13 3 -3 19 14 53 24 47 6 -4 8 2 5 15 -4 12 -3 20 1 18 4 -3 20
11 36 29 15 19 31 32 36 30 4 -3 11 0 15 6 4 7 3 9 -3 6 -13 -8 -25 33 -14 47
5 6 9 19 10 29 3 40 5 46 19 52 8 3 11 12 8 21 -3 8 -1 25 5 36 8 15 8 19 0
14 -6 -4 -11 -1 -11 8 0 8 6 17 13 19 8 4 8 6 0 6 -6 1 -9 10 -6 22 5 16 11
19 30 14 14 -3 22 -2 19 3 -3 5 6 14 20 21 22 10 24 13 10 26 -17 17 -40 20
-30 4 4 -7 -3 -6 -17 2 -13 7 -26 11 -29 10 -3 -1 -7 5 -8 15 -3 11 0 14 10 8
7 -4 4 3 -6 15 -21 23 -25 36 -28 89 -1 22 -6 32 -17 32 -13 0 -13 2 -3 9 11
6 10 10 -3 15 -15 5 -15 9 -4 23 9 11 10 14 2 10 -7 -5 -18 1 -25 13 -7 11
-18 20 -25 20 -7 0 -10 7 -6 17 4 10 2 14 -4 10 -6 -4 -13 3 -16 14 -3 12 -10
18 -17 14 -6 -3 -9 -1 -8 6 2 7 -2 13 -9 14 -6 0 -15 4 -20 9 -5 5 -3 6 5 2 6
-4 12 -3 12 1 0 5 -14 14 -31 20 -21 8 -30 17 -26 26 3 9 -1 14 -11 13 -10 -1
-17 7 -18 22 -1 12 -2 27 -3 32 0 6 -11 1 -23 -10 -13 -12 -24 -16 -26 -10 -2
5 -11 10 -21 10 -9 0 -23 6 -30 13 -11 10 -12 9 -6 -2 5 -9 -1 -8 -18 4 -15 9
-31 14 -37 10 -5 -3 -10 -1 -10 4 0 6 -6 11 -14 11 -8 0 -17 7 -20 16 -3 8
-10 12 -16 9 -5 -3 -10 3 -10 14 0 12 -4 21 -10 21 -5 0 -10 -4 -10 -8 0 -19
-42 -9 -57 14 -11 18 -18 22 -24 13 -6 -10 -11 -10 -22 -1 -12 10 -15 9 -13
-5 0 -10 7 -23 15 -29 8 -6 15 -18 17 -27 2 -16 -22 -31 -36 -22 -5 3 -12 0
-16 -6 -4 -8 -9 -7 -15 2 -7 11 -9 10 -9 -3 0 -9 -5 -20 -12 -24 -7 -5 -8 -3
-3 6 6 10 4 11 -6 4 -8 -5 -41 -10 -74 -10 -104 -3 -99 -2 -84 -21 10 -11 10
-14 2 -9 -7 4 -13 2 -13 -3 0 -6 4 -11 10 -11 6 0 6 -9 -1 -24 -13 -27 -75
-61 -85 -45 -10 17 -31 -22 -28 -53 2 -17 0 -27 -6 -23 -6 4 -13 -1 -17 -11
-4 -10 0 -20 11 -26 9 -5 14 -13 11 -18 -3 -5 4 -12 16 -15 l21 -7 -21 -22
c-17 -18 -18 -25 -8 -36 10 -10 9 -11 -1 -6 -9 6 -11 0 -7 -24 4 -24 2 -30 -7
-24 -10 6 -11 4 0 -7 16 -17 16 -32 0 -23 -10 6 -10 5 -1 -7 6 -8 10 -31 9
-51 -1 -24 3 -38 11 -38 6 0 15 -5 19 -12 5 -7 2 -9 -9 -5 -12 4 -15 1 -12
-15 3 -11 2 -18 -2 -14 -9 8 -33 -14 -33 -31 0 -8 3 -12 8 -10 9 6 33 -19 26
-26 -3 -3 9 -4 28 -3 43 2 61 -10 48 -34 -7 -13 -7 -21 1 -26 8 -4 7 -9 -2
-16 -10 -7 -6 -8 13 -5 15 2 25 1 23 -3 -11 -17 30 -20 42 -4 8 11 13 13 13 5
0 -7 4 -10 9 -7 5 3 12 -1 15 -10 4 -9 9 -14 12 -11 3 3 16 2 29 -3 15 -6 27
-4 35 3 10 9 11 9 6 0 -3 -6 -1 -15 6 -20 20 -13 91 -12 107 0 12 10 13 9 6
-3 -5 -9 0 -8 13 4 12 11 22 16 22 11 0 -4 7 -2 15 5 10 8 15 9 15 1 0 -7 7
-7 25 1 18 8 25 18 23 32 -2 15 2 21 15 19 10 0 16 1 13 4 -3 3 4 14 15 26 10
11 19 27 19 34 0 8 5 11 12 7 7 -5 8 -3 2 7 -12 20 -14 40 -3 33 9 -5 13 8 9
39 -1 10 4 26 12 35 7 9 8 13 2 9 -7 -4 -15 0 -18 9 -3 8 -2 12 4 9 5 -3 7 7
6 22 -2 16 -4 36 -5 46 0 9 -8 17 -17 17 -11 0 -14 6 -9 23 4 13 3 17 -2 10
-5 -7 -14 -9 -22 -4 -9 6 -10 11 -2 15 6 4 11 12 11 18 0 6 -3 9 -6 5 -9 -9
-44 25 -37 36 3 6 1 7 -5 3 -7 -4 -12 -1 -12 6 0 10 -2 10 -9 -1 -10 -16 -31
-6 -31 14 0 7 -7 16 -16 19 -8 3 -13 2 -10 -3 3 -4 -8 -8 -24 -7 -19 1 -30 6
-31 16 0 10 -2 11 -6 3 -6 -17 -40 -17 -47 0 -4 6 -4 2 -2 -11 3 -18 1 -21 -8
-13 -9 7 -16 7 -26 -2 -10 -9 -11 -9 -6 0 5 9 2 11 -9 7 -9 -4 -14 -9 -11 -11
2 -3 -10 -19 -28 -36 -17 -18 -31 -39 -31 -47 0 -8 -6 -20 -15 -27 -8 -7 -10
-13 -5 -13 6 0 3 -5 -5 -10 -13 -9 -13 -10 0 -10 13 0 13 -1 0 -10 -13 -9 -13
-10 0 -10 13 0 13 -1 0 -10 -8 -5 -10 -10 -3 -10 7 0 9 -9 5 -22 -4 -19 -3
-21 9 -11 11 9 14 6 14 -17 0 -16 -6 -35 -12 -42 -10 -9 -13 -9 -13 3 0 12 -2
12 -10 -1 -6 -9 -10 -11 -10 -3 0 7 -6 10 -13 7 -8 -3 -19 1 -26 9 -9 11 -8
17 3 26 15 12 11 45 -4 36 -4 -2 -5 7 -2 21 3 17 0 24 -9 22 -7 -2 -15 5 -17
16 -3 13 0 16 9 11 8 -6 10 -4 4 4 -4 7 -8 26 -9 42 -2 22 2 28 12 24 8 -3 12
0 9 7 -2 7 3 19 12 25 13 11 14 14 2 22 -11 7 -11 9 0 14 9 3 7 6 -6 7 -16 1
-14 4 10 14 17 7 35 11 40 8 6 -3 3 3 -5 13 -8 10 -10 16 -3 12 16 -10 44 3
36 16 -4 6 0 8 10 4 10 -4 16 -2 14 6 -1 7 4 11 11 9 7 -1 15 5 18 13 4 8 12
15 20 15 8 0 14 5 14 12 0 6 3 8 7 5 3 -4 13 -1 21 6 11 8 13 8 9 0 -5 -8 -1
-8 17 0 13 7 22 15 20 19 -3 5 5 4 18 -1 13 -4 29 -6 37 -3 8 3 11 0 7 -7 -5
-7 -1 -9 8 -5 9 3 14 9 12 13 -2 3 9 6 24 6 21 0 26 -3 18 -12 -7 -9 -4 -11
11 -8 12 2 21 -1 21 -8 0 -8 3 -8 9 2 6 9 11 10 15 3 4 -6 14 -8 23 -5 12 5
14 3 8 -7 -6 -10 -4 -12 8 -7 10 4 17 2 17 -4 0 -6 7 -9 14 -6 11 4 13 1 9
-10 -4 -11 -2 -14 5 -9 7 4 12 2 12 -4 0 -7 6 -10 13 -7 14 5 39 -17 30 -27
-4 -3 -1 -6 5 -6 18 0 59 -44 55 -57 -3 -7 2 -16 11 -19 9 -3 13 -10 10 -15
-3 -5 0 -9 5 -9 6 0 11 -7 11 -16 0 -8 4 -13 8 -10 5 3 9 -1 10 -9 1 -8 3 -22
4 -30 1 -8 5 -15 9 -15 4 0 6 -13 5 -30 -1 -16 0 -30 3 -30 3 0 6 -27 6 -60 0
-33 -4 -60 -8 -60 -5 0 -5 -5 -2 -10 4 -6 1 -18 -7 -27 -11 -14 -11 -16 2 -8
13 8 13 6 2 -8 -8 -9 -11 -21 -7 -27 3 -5 2 -10 -3 -10 -5 0 -9 -12 -8 -27 1
-21 -4 -27 -15 -25 -11 1 -16 -5 -15 -20 1 -14 -12 -36 -31 -55 -20 -20 -28
-33 -20 -37 7 -2 4 -5 -5 -5 -10 -1 -18 -5 -18 -10 0 -5 -9 -13 -20 -16 -11
-4 -18 -10 -16 -14 3 -4 0 -8 -7 -9 -43 -5 -85 -5 -100 1 -10 4 -17 2 -17 -6
0 -8 -3 -7 -9 2 -8 13 -12 13 -27 0 -16 -12 -17 -12 -9 1 8 13 7 13 -8 1 -10
-7 -17 -9 -17 -3 0 16 -35 7 -36 -9 0 -8 4 -22 8 -31 5 -11 5 -18 -2 -18 -5 0
-9 -6 -8 -13 2 -6 -5 -11 -14 -11 -10 1 -16 -3 -15 -10 1 -6 -11 -12 -27 -14
-18 -2 -26 0 -21 7 3 6 1 11 -5 11 -6 0 -8 5 -4 11 4 8 1 8 -12 2 -23 -11 -34
-11 -53 1 -10 7 -12 6 -6 -4 6 -10 4 -12 -10 -6 -15 5 -16 4 -6 -8 10 -12 9
-15 -8 -13 -12 1 -21 8 -21 17 0 13 -1 13 -10 0 -6 -10 -10 -11 -10 -3 0 8 -9
11 -22 9 -13 -2 -29 2 -37 8 -12 9 -13 8 -6 -4 7 -12 6 -13 -7 -3 -8 7 -18 10
-21 6 -4 -3 -7 2 -7 11 0 12 -5 16 -15 12 -15 -5 -17 -3 -19 37 -1 16 -7 22
-26 23 -14 0 -31 -4 -38 -10 -9 -7 -15 -3 -19 12 -5 20 -15 27 -36 23 -4 -1
-3 8 3 19 12 23 6 40 -16 40 -8 0 -14 6 -14 14 0 8 -9 12 -26 10 -21 -2 -25 1
-21 17 3 10 1 19 -5 19 -5 0 -6 5 -3 10 3 6 -3 10 -15 10 -12 0 -18 5 -15 10
3 6 -2 10 -12 10 -14 0 -15 2 -5 9 11 7 11 9 -2 14 -9 4 -16 16 -16 27 0 14
-4 19 -12 14 -7 -5 -9 -2 -5 8 3 9 -2 23 -12 32 -10 9 -16 28 -15 46 1 17 -3
30 -9 30 -7 0 -5 5 3 10 13 8 12 10 -4 10 -12 0 -16 5 -12 15 3 8 0 15 -6 15
-7 0 -6 5 2 15 7 8 8 15 3 15 -5 0 -10 7 -10 15 0 8 5 15 11 15 6 0 5 4 -2 9
-17 11 -17 21 0 32 7 5 8 9 3 9 -6 0 -11 9 -12 20 -1 13 2 18 9 14 7 -5 8 -2
3 6 -12 20 -15 60 -4 60 6 0 7 5 4 10 -6 9 8 14 28 11 4 -1 3 8 -3 19 -6 11
-7 20 -3 20 4 0 1 5 -7 10 -12 7 -12 10 -1 10 7 0 11 6 7 15 -3 8 -1 15 5 15
6 0 8 4 4 9 -3 6 0 13 8 18 7 4 13 17 12 28 0 16 6 20 32 19 26 0 30 2 22 13
-9 9 -8 13 0 13 7 0 10 4 6 10 -9 15 5 57 21 57 8 0 14 -4 14 -9 0 -5 9 -4 20
2 11 6 20 7 20 2 0 -5 7 -9 15 -9 8 0 15 5 15 11 0 6 5 4 10 -4 11 -16 11 -15
15 17 1 12 -2 20 -6 17 -9 -5 -12 5 -12 39 0 9 -4 17 -10 17 -8 0 -8 3 0 11 6
6 36 11 67 11 31 1 54 4 51 6 -3 3 1 12 8 20 10 13 9 14 -3 7 -13 -8 -13 -7
-1 8 7 9 9 17 3 17 -12 0 -10 31 3 46 6 7 18 10 28 8 10 -1 15 1 12 6 -3 5 -1
11 5 15 13 8 52 -19 42 -30 -4 -5 0 -4 8 1 21 12 69 14 75 3 4 -5 17 -2 29 7
19 12 23 21 19 49 l-5 35 50 0 c28 0 58 3 68 7 13 5 15 3 9 -8 -6 -10 -5 -11
3 -4 6 6 43 8 87 5 41 -3 75 -2 75 2 0 3 9 4 20 1 12 -3 18 -8 15 -11 -2 -3 5
-10 18 -16 16 -9 22 -20 22 -46 0 -27 4 -35 17 -34 10 1 16 -2 13 -6 -3 -4 16
-7 40 -6 25 0 45 5 45 11 0 7 3 7 8 0 10 -14 35 -12 48 4 16 20 41 22 56 3 11
-13 11 -15 -2 -7 -9 5 -12 5 -7 -1 11 -12 30 -12 38 -1 4 6 10 0 14 -12 3 -11
14 -21 24 -21 13 0 17 -7 15 -31 -2 -27 1 -30 24 -29 47 3 63 0 57 -10 -5 -9
6 -14 25 -12 3 0 7 -8 7 -19 1 -10 -4 -19 -10 -19 -8 0 -8 -3 1 -9 7 -4 12
-12 11 -17 -4 -24 1 -38 12 -27 6 6 19 9 29 6 15 -4 17 -9 9 -30 -5 -13 -5
-22 0 -19 4 3 16 -3 26 -14 14 -15 15 -20 4 -20 -11 0 -11 -2 1 -10 8 -5 11
-10 7 -10 -4 0 1 -10 12 -22 15 -15 18 -25 10 -34 -8 -9 -4 -12 16 -10 14 2
28 -1 32 -7 4 -6 1 -7 -8 -3 -8 4 -6 1 5 -8 10 -8 15 -20 11 -26 -4 -7 -4 -15
1 -19 18 -13 32 -48 29 -73 -2 -16 3 -29 11 -32 8 -3 11 -12 7 -22 -3 -10 -2
-15 3 -12 5 4 8 -15 7 -43 0 -27 3 -49 8 -49 5 0 9 -5 9 -11 0 -5 -5 -7 -12
-3 -7 5 -8 3 -4 -5 5 -7 15 -10 23 -7 9 4 11 2 6 -7 -4 -6 -6 -19 -5 -28 2
-11 -4 -16 -15 -15 -12 1 -17 -5 -15 -17 2 -10 -3 -17 -12 -17 -21 0 -25 -23
-7 -38 10 -8 10 -11 2 -6 -9 5 -12 3 -7 -4 4 -7 13 -12 19 -12 7 0 13 -9 13
-20 0 -11 -3 -20 -7 -20 -3 0 -3 -21 1 -46 6 -36 3 -50 -12 -70 -18 -22 -16
-28 4 -25 4 0 2 -10 -4 -24 -6 -13 -15 -22 -21 -18 -6 3 -7 1 -3 -5 14 -23 15
-53 1 -58 -7 -3 -12 -16 -10 -30 1 -14 0 -22 -3 -20 -6 6 -42 -33 -42 -45 0
-4 -11 -6 -24 -3 -14 2 -28 0 -31 -6 -3 -5 0 -10 7 -10 9 0 9 -3 -2 -10 -9 -6
-11 -10 -3 -10 9 0 10 -7 4 -22 -5 -13 -17 -23 -27 -23 -25 1 -36 -16 -22 -32
6 -7 8 -14 4 -14 -3 -1 -9 -2 -13 -3 -5 -1 -13 -5 -20 -9 -6 -4 -14 -1 -16 5
-4 10 -6 10 -6 0 -1 -7 -5 -11 -10 -8 -5 4 -7 -3 -4 -14 3 -11 8 -18 12 -16 3
2 12 -2 19 -10 7 -8 9 -14 4 -14 -13 0 -11 -30 2 -30 6 -1 0 -7 -14 -15 -14
-8 -22 -14 -18 -15 4 0 -5 -13 -20 -29 -18 -20 -29 -26 -34 -18 -6 9 -8 8 -8
-2 0 -10 -3 -11 -13 -3 -10 9 -13 5 -15 -18 -1 -15 -16 -43 -33 -61 -29 -31
-33 -33 -99 -31 -43 1 -72 -3 -76 -10 -5 -7 -3 -8 5 -4 8 5 14 0 18 -13 3 -11
9 -18 14 -16 4 3 7 -3 6 -13 -1 -21 -57 -49 -57 -29 0 7 -12 -1 -26 -18 -14
-16 -23 -24 -19 -17 5 9 -1 11 -25 7 -24 -4 -30 -2 -24 7 4 7 -3 4 -16 -7 -13
-11 -21 -15 -17 -9 4 7 -10 10 -46 9 -29 -1 -58 3 -66 9 -11 8 -13 8 -7 -2 8
-14 -19 -12 -43 2 -10 6 -12 5 -7 -2 9 -15 -64 -13 -83 2 -10 7 -13 7 -9 0 8
-13 -170 -13 -191 0 -9 6 -12 5 -8 -1 4 -6 0 -14 -9 -17 -8 -3 -13 -2 -10 3 3
4 -20 7 -52 6 -35 -2 -60 2 -64 9 -6 8 -8 8 -8 -1 0 -7 -7 -10 -17 -6 -10 4
-14 2 -10 -4 7 -12 -10 -12 -28 -1 -5 3 -22 5 -38 3 -15 -2 -25 1 -21 6 3 5 0
9 -6 9 -6 0 -8 5 -4 11 5 8 1 8 -14 0 -14 -7 -23 -8 -27 -1 -4 6 -10 8 -15 5
-13 -8 -21 25 -10 43 5 10 10 13 10 7 0 -11 20 16 20 28 0 5 -10 7 -22 6 -13
-2 -28 0 -34 4 -8 5 -11 -4 -10 -27 1 -19 -2 -32 -6 -30 -3 2 -9 -2 -11 -8 -4
-8 -6 -7 -6 4 -1 9 -10 20 -21 23 -11 3 -20 11 -20 16 0 6 -5 7 -10 4 -5 -3
-10 -1 -10 4 0 6 -3 10 -7 9 -13 -4 -53 36 -53 52 0 9 5 21 12 28 9 9 9 12 -1
12 -7 0 -9 5 -5 12 5 8 2 9 -9 5 -10 -3 -17 -3 -17 2 0 7 -27 8 -55 0 -24 -6
-44 13 -36 34 13 37 3 55 -26 49 -20 -4 -24 -2 -18 9 7 11 6 12 -6 2 -8 -6
-22 -11 -31 -9 -22 3 -59 36 -53 47 3 4 1 10 -4 13 -5 3 -7 15 -4 26 3 12 -1
22 -11 26 -9 3 -16 13 -16 22 0 8 -3 12 -7 9 -3 -4 -13 2 -20 13 -8 11 -18 18
-23 15 -5 -3 -8 2 -6 12 2 10 0 27 -5 38 -4 11 -8 14 -8 7 -1 -9 -6 -10 -20
-3 -10 6 -21 8 -25 6 -3 -3 -4 -2 -1 2 3 3 -2 14 -11 24 -9 10 -14 25 -11 34
4 8 1 15 -6 15 -8 0 -6 4 3 10 13 8 13 10 -1 10 -21 0 -26 13 -24 73 1 33 -2
47 -12 47 -7 0 -13 5 -13 10 0 6 -7 10 -15 10 -8 0 -15 9 -15 19 0 11 -5 23
-11 27 -8 4 -7 9 2 15 11 7 10 11 -6 23 -12 9 -15 15 -7 16 7 0 10 5 7 10 -4
6 -10 8 -14 5 -9 -5 -6 38 3 53 3 5 -1 15 -9 22 -8 7 -12 16 -9 21 3 5 0 9 -5
9 -6 0 -10 17 -9 38 0 22 -3 45 -7 52 -6 9 -4 11 4 5 10 -6 11 -3 2 13 -8 15
-8 22 2 25 7 3 5 6 -5 6 -11 1 -15 6 -12 16 4 8 0 23 -7 32 -8 9 -9 14 -4 11
6 -4 17 3 25 15 12 20 12 21 -4 8 -15 -13 -16 -12 -7 12 7 18 7 27 -1 29 -8 3
-7 10 1 26 9 17 9 22 -1 22 -10 0 -9 3 1 9 15 9 19 65 8 94 -6 15 -1 19 19 16
13 -2 23 26 12 32 -9 6 -8 12 1 23 9 11 10 16 2 16 -13 0 -10 22 4 32 6 5 5 8
-2 8 -9 0 -6 14 7 45 11 25 16 53 13 62 -4 11 -3 14 5 9 7 -4 12 -3 12 1 0 5
17 8 38 8 37 0 37 0 37 40 0 22 -4 43 -10 47 -6 5 -4 8 5 8 13 0 13 1 0 10 -8
5 -10 10 -5 10 6 0 9 20 8 45 -1 38 1 44 15 36 10 -6 22 -3 35 10 11 10 23 16
27 14 4 -3 6 13 5 35 -2 22 1 37 6 34 5 -3 5 6 -1 20 -7 19 -6 26 2 26 6 0 8
3 5 7 -4 3 1 12 11 20 10 9 11 12 2 7 -8 -4 -1 6 15 22 17 16 40 28 53 28 18
-1 23 3 19 17 -3 11 0 19 6 19 8 0 7 4 -2 9 -9 6 -10 11 -2 15 6 4 10 10 8 14
-2 4 4 15 15 25 10 9 18 15 18 12 0 -3 10 -1 21 6 12 6 19 7 15 1 -3 -6 4 -9
17 -8 16 1 22 7 22 23 0 13 -4 23 -10 23 -5 0 -4 4 3 9 8 4 13 11 13 15 -3 20
0 26 9 21 6 -3 10 0 10 8 0 9 13 16 34 19 21 2 32 0 29 -6 -4 -6 1 -6 13 -2
29 12 74 13 67 3 -3 -5 0 -8 8 -5 8 3 14 15 14 28 0 13 7 26 16 29 11 4 15 15
13 34 -1 15 1 25 6 22 5 -3 12 0 16 6 4 8 9 7 15 -2 7 -12 9 -12 9 0 0 11 3
11 17 0 11 -10 14 -10 9 -1 -4 6 -2 12 3 12 6 0 11 -6 11 -12 1 -8 6 -6 14 4
7 10 16 15 20 11 4 -4 4 1 0 10 -4 11 0 25 10 36 9 10 13 21 9 25 -4 4 11 6
34 3 23 -2 40 -1 38 3 -2 4 7 12 22 19 21 10 28 9 34 -1 7 -10 9 -10 9 1 0 11
3 11 15 1 8 -7 15 -8 15 -2 0 17 49 11 55 -7 7 -24 83 -20 101 4 11 14 16 16
28 6 9 -7 17 -8 20 -2 7 10 24 10 43 -2 6 -4 15 -3 18 3 5 8 11 8 19 1 7 -6
16 -8 20 -4 12 12 126 11 119 -1 -5 -7 -2 -7 8 1 8 6 19 11 24 11 6 0 16 -5
24 -11 9 -7 12 -8 8 -1 -4 7 6 11 28 11 20 0 32 -4 28 -10 -4 -6 -1 -7 8 -1
20 12 38 14 45 3 3 -5 10 -7 15 -4 18 12 49 14 54 4 4 -5 12 -6 18 -2 7 4 21
8 32 8 14 0 20 8 22 29 2 34 11 45 22 27 7 -10 13 -11 31 -1 18 10 21 10 14
-2 -6 -11 -5 -11 8 0 19 15 37 -2 33 -30 -3 -18 6 -22 34 -19 8 2 10 -2 5 -11
-6 -11 -5 -11 8 0 11 9 18 10 23 2 3 -6 12 -7 18 -3 17 11 57 11 63 1 3 -4 10
-6 15 -2 5 3 7 10 4 15 -4 5 1 12 9 15 9 3 14 10 11 14 -6 10 10 7 45 -7 14
-6 29 -8 35 -5 5 3 193 6 417 6 300 1 408 -2 408 -10 0 -22 29 -24 41 -3 10
19 12 19 28 5 20 -19 31 -20 31 -5 0 5 -5 7 -12 3 -7 -4 -8 -3 -4 4 4 6 13 9
21 6 8 -4 13 -10 10 -14 -8 -12 23 -19 73 -16 25 2 42 -1 42 -8 0 -7 3 -7 8 1
11 17 48 9 44 -10 -2 -11 3 -14 18 -10 11 3 20 10 20 17 0 6 17 12 40 12 24 1
37 -3 33 -9 -4 -6 -1 -7 8 -1 21 13 329 13 321 0 -3 -6 1 -6 9 1 23 19 25 19
44 3 11 -9 16 -10 11 -2 -8 14 19 12 43 -2 9 -6 12 -5 7 2 -4 7 5 9 26 7 18
-2 35 -4 38 -5 3 -1 10 -1 15 0 34 8 62 4 76 -11 14 -17 39 -13 42 7 3 13 27
14 27 1 0 -8 3 -8 8 -2 12 16 32 16 32 0 0 -8 5 -16 10 -16 40 -5 57 -4 69 5
11 8 13 8 8 0 -6 -10 19 -11 86 -5 5 1 5 6 2 11 -7 11 -4 12 46 15 57 3 60 6
47 74 -2 9 15 45 24 51 4 3 9 16 11 28 2 12 10 28 17 35 12 10 12 9 5 -3 -6
-9 -2 -8 7 3 16 16 15 48 0 45 -21 -2 -23 4 -6 18 10 8 13 12 5 8 -9 -4 -12
-2 -9 7 3 8 1 23 -5 34 -9 17 -8 18 4 8 12 -10 15 -8 15 7 0 10 -5 16 -11 12
-5 -3 -4 1 3 10 15 19 14 86 -2 107 -8 11 -8 13 2 7 6 -4 12 -3 12 3 0 5 -6
11 -12 13 -15 5 -17 50 -4 60 16 11 15 50 -1 44 -7 -3 -13 -1 -13 4 0 6 8 10
17 10 15 0 14 2 -3 14 -15 12 -16 17 -7 27 8 8 9 18 2 31 -8 14 -6 18 6 18 9
0 13 5 10 10 -4 6 -9 8 -13 6 -4 -2 -7 7 -7 20 0 13 3 24 8 24 4 0 7 5 7 11 0
5 -4 8 -9 4 -6 -3 -6 6 -1 25 5 16 8 30 7 31 -15 6 -36 5 -31 -2 3 -5 10 -6
16 -3 7 5 8 2 3 -6 -6 -10 -12 -8 -26 9 -14 17 -22 20 -36 12 -12 -6 -25 -6
-35 0 -11 6 -19 5 -24 -2 -5 -8 -8 -8 -14 0 -5 9 -14 8 -33 -2 -15 -8 -24 -17
-21 -20 3 -3 -1 -4 -10 -3 -8 1 -19 5 -22 9 -12 12 -26 8 -18 -5 4 -7 -2 -5
-13 5 -21 18 -22 18 -32 0 -6 -10 -11 -13 -11 -7 0 7 -7 14 -14 17 -9 4 -13 1
-10 -7 3 -7 -4 -12 -20 -12 -14 0 -23 3 -20 7 7 11 -52 28 -67 19 -7 -5 -19
-5 -25 1 -8 7 -14 6 -19 -1 -5 -8 -10 -8 -20 0 -10 8 -15 8 -20 0 -5 -8 -11
-8 -21 1 -11 9 -14 8 -14 -2 0 -11 -2 -11 -9 0 -8 12 -12 12 -25 2 -9 -8 -16
-10 -16 -5 0 10 -171 10 -188 0 -6 -3 -18 1 -26 10 -10 9 -16 11 -16 4 0 -6
-6 -10 -12 -7 -7 2 -21 0 -32 -5 -11 -6 -16 -6 -13 -1 4 6 -14 10 -42 9 -27 0
-47 -5 -44 -10 4 -5 0 -6 -8 -1 -20 13 -49 13 -49 1 0 -6 -4 -4 -10 4 -5 8
-12 11 -16 7 -4 -4 -14 -1 -22 6 -9 7 -13 7 -9 1 8 -14 -130 -13 -152 0 -9 6
-12 5 -8 -2 5 -7 -7 -9 -35 -6 -22 2 -47 -1 -54 -7 -8 -7 -14 -6 -20 2 -5 8
-3 9 6 4 9 -5 11 -4 6 4 -6 9 -11 9 -22 0 -10 -8 -14 -8 -14 -1 0 6 -7 9 -15
6 -8 -4 -12 -10 -9 -15 3 -5 -2 -6 -10 -3 -9 3 -13 11 -10 16 4 6 -1 6 -13 0
-14 -8 -27 -7 -46 3 -16 8 -26 9 -24 3 1 -6 -10 -11 -25 -12 -16 -1 -28 2 -28
7 0 4 -5 5 -10 2 -6 -4 -7 -12 -3 -18 3 -7 -4 -3 -17 8 -13 11 -20 14 -16 8 4
-7 2 -13 -3 -13 -6 0 -11 6 -11 13 0 8 -4 7 -10 -3 -5 -8 -10 -10 -10 -5 0 6
-5 3 -10 -5 -8 -12 -10 -12 -11 5 0 11 -3 15 -5 10 -5 -13 -105 -10 -113 3 -7
12 -157 19 -168 9 -3 -4 -15 1 -25 10 -18 16 -18 16 -12 0 3 -10 1 -17 -5 -17
-6 0 -11 4 -11 8 0 5 -14 6 -31 4 -20 -3 -34 0 -40 9 -7 11 -9 10 -9 -5 0 -15
-3 -16 -14 -7 -11 9 -15 9 -19 -1 -3 -7 -6 -8 -6 -3 -1 6 -20 9 -43 8 -24 0
-49 4 -57 10 -12 10 -13 9 -7 -2 7 -10 3 -12 -14 -6 -15 5 -20 4 -16 -4 5 -7
1 -9 -8 -5 -9 3 -13 10 -10 16 3 5 -4 4 -16 -4 -19 -11 -23 -11 -27 0 -4 10
-9 8 -20 -5 -8 -10 -12 -13 -9 -7 8 15 -21 26 -30 12 -5 -7 -2 -8 6 -3 8 5 11
4 6 -3 -4 -6 -13 -9 -21 -6 -8 4 -12 10 -9 15 3 5 -2 6 -10 3 -9 -3 -13 -10
-10 -15 3 -5 -2 -6 -10 -3 -9 3 -13 11 -9 18 4 6 -1 5 -10 -3 -14 -11 -17 -11
-17 0 0 11 -2 11 -10 -1 -5 -8 -10 -11 -10 -6 0 5 -7 3 -15 -4 -13 -11 -14
-10 -10 2 5 12 -2 15 -27 14 -18 -1 -39 -5 -46 -10 -6 -4 -12 -3 -12 2 0 5
-10 8 -22 6 -13 -1 -23 -3 -23 -4 0 -1 -8 -3 -17 -5 -10 -2 -18 0 -18 4 0 4
-10 7 -22 5 -13 -1 -23 -3 -23 -4 0 -1 -10 -3 -23 -6 -13 -2 -21 0 -18 4 4 7
-28 8 -44 2 -13 -6 -56 -4 -60 2 -3 4 -16 9 -28 11 -12 2 -25 6 -28 10 -4 4
-14 1 -22 -6 -12 -10 -16 -9 -20 1 -3 10 -7 10 -18 1 -11 -9 -14 -9 -14 1 0
10 -3 10 -14 1 -11 -9 -15 -9 -19 1 -4 10 -6 10 -6 -1 -1 -11 -4 -11 -18 0
-15 12 -16 12 -8 -1 8 -13 7 -13 -8 -1 -12 9 -17 10 -17 2 0 -7 -5 -9 -12 -4
-21 12 -38 12 -38 0 0 -8 -3 -7 -9 1 -4 8 -12 14 -16 14 -4 0 -12 -6 -16 -14
-5 -7 -9 -8 -9 -2 0 14 -30 14 -30 0 0 -6 -5 -4 -10 4 -8 12 -11 13 -19 1 -7
-11 -9 -11 -13 0 -4 11 -8 12 -20 2 -11 -10 -17 -10 -27 0 -11 9 -14 9 -18 -1
-4 -10 -8 -10 -19 -1 -11 9 -14 9 -14 -1 0 -27 -29 12 -32 42 -2 18 -9 33 -16
36 -7 2 -12 0 -10 -5z m28 -73 c0 -5 -2 -10 -4 -10 -3 0 -8 5 -11 10 -3 6 -1
10 4 10 6 0 11 -4 11 -10z m2140 -3746 c0 -8 -19 -13 -24 -6 -3 5 1 9 9 9 8 0
15 -2 15 -3z"/>
<path d="M4835 3900 c-3 -5 -1 -10 4 -10 6 0 11 5 11 10 0 6 -2 10 -4 10 -3 0
-8 -4 -11 -10z"/>
<path d="M4765 3600 c-3 -5 -3 -10 2 -10 4 0 3 -4 -3 -8 -8 -5 -5 -13 9 -27
l20 -20 -10 20 c-6 11 -9 28 -8 38 4 19 -1 22 -10 7z"/>
<path d="M4770 3328 c0 -10 -5 -18 -12 -18 -6 0 -9 -3 -5 -6 3 -3 12 -2 21 3
10 6 12 13 6 23 -8 13 -10 12 -10 -2z"/>
<path d="M4770 3280 c0 -5 5 -10 11 -10 5 0 7 5 4 10 -3 6 -8 10 -11 10 -2 0
-4 -4 -4 -10z"/>
<path d="M3255 3200 c-3 -5 -1 -10 4 -10 6 0 11 5 11 10 0 6 -2 10 -4 10 -3 0
-8 -4 -11 -10z"/>
<path d="M4750 3199 c0 -5 5 -7 10 -4 6 3 10 8 10 11 0 2 -4 4 -10 4 -5 0 -10
-5 -10 -11z"/>
<path d="M2835 820 c3 -5 8 -10 11 -10 2 0 4 5 4 10 0 6 -5 10 -11 10 -5 0 -7
-4 -4 -10z"/>
</g>
</svg>
